<svg width="14" height="16" viewBox="0 0 14 16" fill="none" xmlns="http://www.w3.org/2000/svg">
<g id="Group 39861">
<path id="Vector" d="M5.12499 15.125C5.3321 15.125 5.49999 14.9571 5.49999 14.75C5.49999 14.5429 5.3321 14.375 5.12499 14.375C4.91789 14.375 4.75 14.5429 4.75 14.75C4.75 14.9571 4.91789 15.125 5.12499 15.125Z" fill="#515151" stroke="#515151" stroke-width="1.33" stroke-linecap="round" stroke-linejoin="round"/>
<path id="Vector_2" d="M11.875 15.125C12.0821 15.125 12.25 14.9571 12.25 14.75C12.25 14.5429 12.0821 14.375 11.875 14.375C11.6679 14.375 11.5 14.5429 11.5 14.75C11.5 14.9571 11.6679 15.125 11.875 15.125Z" fill="#515151" stroke="#515151" stroke-width="1.33" stroke-linecap="round" stroke-linejoin="round"/>
<path id="Vector_3" d="M1 3.87524H3.18178L4.64357 11.2394C4.69345 11.4926 4.83007 11.7201 5.0295 11.882C5.22894 12.0439 5.47849 12.1298 5.73446 12.1249H11.0362C11.2922 12.1298 11.5417 12.0439 11.7412 11.882C11.9406 11.7201 12.0772 11.4926 12.1271 11.2394L12.9998 6.62513H3.72723" stroke="#515151" stroke-width="1.33" stroke-linecap="round" stroke-linejoin="round"/>
<path id="Vector_4" d="M6.25 2.37524L8.49996 4.62521L10.7499 2.37524" stroke="#515151" stroke-width="1.33" stroke-linecap="round" stroke-linejoin="round"/>
<path id="Vector_5" d="M8.5 4.62518V0.875244" stroke="#515151" stroke-width="1.33" stroke-linecap="round" stroke-linejoin="round"/>
</g>
</svg>
