<svg xmlns="http://www.w3.org/2000/svg" width="20" height="20" viewBox="0 0 20 20" fill="none">
  <path fill-rule="evenodd" clip-rule="evenodd" d="M16.2577 5.7175C16.8031 5.17208 16.8031 4.28777 16.2577 3.74235C15.7123 3.19692 14.828 3.19692 14.2825 3.74235L10.0001 8.02479L5.71765 3.74235C5.17222 3.19692 4.28792 3.19692 3.74249 3.74235C3.19707 4.28777 3.19707 5.17208 3.74249 5.7175L8.02493 9.99994L3.74249 14.2824C3.19707 14.8278 3.19707 15.7121 3.74249 16.2575C4.28792 16.803 5.17222 16.803 5.71765 16.2575L10.0001 11.9751L14.2825 16.2575C14.828 16.803 15.7123 16.803 16.2577 16.2575C16.8031 15.7121 16.8031 14.8278 16.2577 14.2824L11.9752 9.99994L16.2577 5.7175Z" fill="#A8A8A8"/>
</svg>