<svg xmlns="http://www.w3.org/2000/svg" width="16" height="17" viewBox="0 0 16 17" fill="none">
    <path
        d="M5.01067 8.5H8.18715C8.54009 8.5 8.71656 8.67647 8.71656 9.02941C8.71656 9.38235 8.54009 9.55882 8.18715 9.55882H5.01067C4.65773 9.55882 4.48126 9.38235 4.48126 9.02941C4.48126 8.67647 4.65773 8.5 5.01067 8.5Z"
        fill="#A8A8A8" />
    <path
        d="M5.01067 10.6172H8.18715C8.54009 10.6172 8.71656 10.7937 8.71656 11.1466C8.71656 11.4995 8.54009 11.676 8.18715 11.676H5.01067C4.65773 11.676 4.48126 11.4995 4.48126 11.1466C4.48126 10.7937 4.65773 10.6172 5.01067 10.6172Z"
        fill="#A8A8A8" />
    <path
        d="M9.41192 5.32324H3.76486C3.29683 5.32324 2.84797 5.50917 2.51702 5.84011C2.18608 6.17106 2.00015 6.61992 2.00015 7.08795V12.735C2.00015 13.203 2.18608 13.6519 2.51702 13.9828C2.84797 14.3138 3.29683 14.4997 3.76486 14.4997H9.41192C9.87995 14.4997 10.3288 14.3138 10.6598 13.9828C10.9907 13.6519 11.1766 13.203 11.1766 12.735V7.08795C11.1766 6.61992 10.9907 6.17106 10.6598 5.84011C10.3288 5.50917 9.87995 5.32324 9.41192 5.32324ZM10.1178 12.5585C10.1178 12.6744 10.095 12.7892 10.0506 12.8962C10.0063 13.0033 9.9413 13.1005 9.85937 13.1825C9.77744 13.2644 9.68017 13.3294 9.57311 13.3737C9.46606 13.4181 9.35133 13.4409 9.23545 13.4409H3.94133C3.82546 13.4409 3.71072 13.4181 3.60367 13.3737C3.49662 13.3294 3.39935 13.2644 3.31741 13.1825C3.23548 13.1005 3.17048 13.0033 3.12614 12.8962C3.0818 12.7892 3.05898 12.6744 3.05898 12.5585V7.26442C3.05898 7.14855 3.0818 7.03381 3.12614 6.92676C3.17048 6.81971 3.23548 6.72244 3.31741 6.6405C3.39935 6.55857 3.49662 6.49357 3.60367 6.44923C3.71072 6.40489 3.82546 6.38207 3.94133 6.38207H9.23545C9.46947 6.38207 9.6939 6.47503 9.85937 6.6405C10.0248 6.80598 10.1178 7.03041 10.1178 7.26442V12.5585Z"
        fill="#A8A8A8" />
    <path
        d="M12.2353 2.5H6.58822C6.12019 2.5 5.67133 2.68592 5.34039 3.01687C5.00944 3.34782 4.82352 3.79668 4.82352 4.26471V5.67647H5.88234V4.44118C5.88234 4.20777 5.97482 3.98388 6.13953 3.8185C6.30424 3.65313 6.52776 3.55976 6.76117 3.55882H12.0553C12.1715 3.55836 12.2866 3.58084 12.394 3.62497C12.5015 3.66911 12.5992 3.73403 12.6815 3.81601C12.7638 3.89799 12.8291 3.99542 12.8737 4.1027C12.9182 4.20998 12.9412 4.32501 12.9412 4.44118V9.7353C12.9412 9.85117 12.9183 9.96591 12.874 10.073C12.8297 10.18 12.7647 10.2773 12.6827 10.3592C12.6008 10.4412 12.5035 10.5061 12.3965 10.5505C12.2894 10.5948 12.1747 10.6177 12.0588 10.6177H10.8235V11.6765H12.2353C12.7033 11.6765 13.1522 11.4906 13.4831 11.1596C13.8141 10.8287 14 10.3798 14 9.91177V4.26471C14 3.79668 13.8141 3.34782 13.4831 3.01687C13.1522 2.68592 12.7033 2.5 12.2353 2.5Z"
        fill="#A8A8A8" />
</svg>