<svg width="96" height="96" viewBox="0 0 96 96" fill="none" xmlns="http://www.w3.org/2000/svg">
<g id="Group 39830">
<rect id="Rectangle 171" width="96" height="96" rx="16" fill="#F1F1F1"/>
<g id="Mask group">
<mask id="mask0_633_2912" style="mask-type:alpha" maskUnits="userSpaceOnUse" x="0" y="0" width="96" height="96">
<rect id="Rectangle 172" width="96" height="96" rx="16" fill="#F1F1F1"/>
</mask>
<g mask="url(#mask0_633_2912)">
<circle id="Ellipse 311" opacity="0.2" cx="0.141691" cy="73.9703" r="48.375" transform="rotate(15.243 0.141691 73.9703)" fill="#FF1146"/>
<circle id="Ellipse 312" opacity="0.1" cx="54.1975" cy="50.4473" r="38.6463" transform="rotate(15.243 54.1975 50.4473)" fill="#FF1146"/>
<path id="Vector" d="M94.8123 50.3377L88.6271 51.5652L89.0909 48.155C89.6259 43.7975 86.5002 39.8036 82.1827 39.2088L49.5462 35.1611C47.4223 34.9087 45.3071 35.484 43.6496 36.798C41.9323 38.072 40.9122 39.9854 40.6597 42.1093C40.6494 42.3187 40.5077 43.6948 40.507 44.2134L40.2975 44.2032C38.2033 44.1003 36.1178 44.8253 34.5399 46.279C33.002 47.673 32.0115 49.736 31.9586 51.8203L31.4634 62.9099L26.8245 63.8305C22.8839 64.6126 20.3251 68.4385 21.1071 72.3791L29.1157 112.733C30.6204 120.315 38.0332 125.272 45.6151 123.768L106.969 111.592C110.311 110.928 112.47 107.7 111.807 104.358L102.046 55.1754C101.432 51.8235 98.1543 49.6744 94.8123 50.3377ZM73.1953 100.77L73.8586 104.112C73.9378 104.511 73.6579 104.93 73.2589 105.009L69.9667 105.662C69.5677 105.742 69.1492 105.462 69.07 105.063L68.4563 101.97C66.5509 102.296 64.9951 102.294 63.5988 102.312C63.2397 102.331 62.8311 102.101 62.7519 101.702L62.2273 99.0587C62.1481 98.6596 62.4379 98.291 62.787 98.2217L62.8369 98.2118C64.3231 98.1243 67.9941 97.5513 69.3408 97.284C72.5831 96.6405 73.353 95.2953 72.9274 93.1504C72.6403 91.7039 71.8034 91.1441 69.122 90.1727L63.7593 88.23C59.9714 86.9079 58.6478 84.9412 58.143 82.3973C57.4797 79.0552 58.6011 76.0849 62.9918 74.4358L62.3879 71.3931C62.3088 70.994 62.5886 70.5756 62.9877 70.4964L66.3297 69.8331C66.7287 69.7539 67.1472 70.0338 67.2264 70.4328L67.8006 73.3259C69.8655 73.0198 72.0599 72.8435 73.0571 72.9049C73.4162 72.8855 73.7748 73.1253 73.8441 73.4745L74.3787 76.1681C74.448 76.5172 74.258 76.866 73.9088 76.9353L73.8589 76.9452C71.4251 77.2209 69.0011 77.5464 66.6068 78.0216C63.9132 78.5561 62.954 79.7316 63.2807 81.3776C63.5183 82.5748 64.2654 83.2042 66.917 84.0259L71.7916 85.599C76.2276 87.0517 77.7803 89.1284 78.3545 92.0215C78.8883 95.2337 77.8956 98.8525 73.1953 100.77ZM75.6386 53.78C75.6085 53.8896 75.6283 53.9894 75.6081 54.1489L36.9005 61.8309L37.3137 52.1574L37.3438 52.0477C37.4047 51.3098 37.6949 50.6819 38.2642 50.1542C38.7934 49.6862 39.4621 49.398 40.2 49.4589L73.0498 50.9238C73.7877 50.9847 74.4156 51.2749 74.9433 51.8441C75.4014 52.3235 75.6995 53.042 75.6386 53.78ZM83.866 47.4292L83.19 52.6442L80.7957 53.1194C80.6888 51.2742 79.9333 49.5577 78.7286 48.1895C77.3346 46.6516 75.3215 45.6513 73.1873 45.6082L45.623 44.3906C45.6531 44.2809 45.6832 44.1712 45.7033 44.0117L45.8648 42.7354C46.0464 41.2995 47.3845 40.2044 48.8801 40.426L81.5166 44.4736C82.2047 44.5445 82.9023 44.9245 83.3203 45.4637C83.7384 46.0028 83.9368 46.7412 83.866 47.4292Z" fill="black"/>
</g>
</g>
</g>
</svg>
