<svg xmlns="http://www.w3.org/2000/svg" width="36" height="36" viewBox="0 0 36 36" fill="none">
    <mask id="mask0_313_2962" style="mask-type:alpha" maskUnits="userSpaceOnUse" x="0" y="0"
        width="36" height="36">
        <rect width="36" height="36" rx="5.14286" fill="white" />
    </mask>
    <g mask="url(#mask0_313_2962)">
        <path
            d="M24.7332 17.392C25.6118 17.392 26.324 16.6802 26.324 15.8024C26.324 14.9245 25.6118 14.2129 24.7332 14.2129C23.8547 14.2129 23.1426 14.9245 23.1426 15.8024C23.1426 16.6802 23.8547 17.392 24.7332 17.392Z"
            fill="#8CDD00" />
        <path
            d="M14.0242 14.2129C13.228 14.2129 12.5816 14.8587 12.5816 15.6545C12.5816 16.4501 13.228 17.096 14.0242 17.096C14.8206 17.096 15.467 16.4501 15.467 15.6545C15.4652 14.8587 14.8206 14.2129 14.0242 14.2129Z"
            fill="#8CDD00" />
        <path
            d="M18.3721 13.031L16.7779 20.6053C16.6298 21.3126 15.9961 21.8251 15.2738 21.8251C14.8062 21.8251 14.371 21.6158 14.0767 21.253C13.8474 20.9698 13.7318 20.6216 13.7374 20.2643L10.8574 21.0077C10.9802 21.7618 11.2907 22.4818 11.7854 23.0971C12.6395 24.1561 13.9107 24.7641 15.272 24.7641C17.3774 24.7641 19.219 23.2702 19.6524 21.2115L21.3749 13.0328H18.3721V13.031Z"
            fill="#C1C1C1" />
        <path
            d="M31.8673 7.6489C30.9012 6.45984 29.4676 5.77789 27.9347 5.77789H24.3868L23.7675 8.71515H27.9347C28.5775 8.71515 29.1788 9.00019 29.5832 9.50011C29.9876 9.99807 30.1448 10.6457 30.013 11.2736L29.3935 14.2129H32.3981L32.891 11.8799C33.2051 10.3806 32.8333 8.8378 31.8673 7.6489Z"
            fill="#8CDD00" />
        <path
            d="M27.3892 23.7357C26.9559 25.7926 25.1161 27.2847 23.0125 27.2847H19.8545L19.2353 30.2221H23.0125C26.4974 30.2221 29.5487 27.7483 30.2656 24.3401L30.7856 21.8683H27.781L27.3892 23.7357Z"
            fill="#8CDD00" />
        <path
            d="M5.73517 11.6598L5.19717 14.2145H8.20161L8.61155 12.266C9.04489 10.209 10.8847 8.71695 12.9883 8.71695H16.0144L16.6337 5.77954H12.9883C9.50342 5.77774 6.45206 8.25137 5.73517 11.6598Z"
            fill="#8CDD00" />
        <path
            d="M6.41759 26.4981C6.01319 26 5.85605 25.3524 5.98785 24.7244L6.53679 22.1209L3.35887 22.9401L3.10982 24.12C2.79374 25.6194 3.16755 27.162 4.13349 28.3509C5.09958 29.54 6.53319 30.2221 8.06607 30.2221H11.4823L12.1015 27.2847H8.06607C7.42326 27.2829 6.82199 26.9978 6.41759 26.4981Z"
            fill="#8CDD00" />
    </g>
</svg>