<svg width="16" height="16" viewBox="0 0 16 16" fill="none" xmlns="http://www.w3.org/2000/svg">
<g id="more">
<path id="Vector" d="M8.00004 8.66671C8.36823 8.66671 8.66671 8.36823 8.66671 8.00004C8.66671 7.63185 8.36823 7.33337 8.00004 7.33337C7.63185 7.33337 7.33337 7.63185 7.33337 8.00004C7.33337 8.36823 7.63185 8.66671 8.00004 8.66671Z" stroke="#FF1146" stroke-width="1.33" stroke-linecap="round" stroke-linejoin="round"/>
<path id="Vector_2" d="M12.6667 8.66671C13.0349 8.66671 13.3333 8.36823 13.3333 8.00004C13.3333 7.63185 13.0349 7.33337 12.6667 7.33337C12.2985 7.33337 12 7.63185 12 8.00004C12 8.36823 12.2985 8.66671 12.6667 8.66671Z" stroke="#FF1146" stroke-width="1.33" stroke-linecap="round" stroke-linejoin="round"/>
<path id="Vector_3" d="M3.33329 8.66671C3.70148 8.66671 3.99996 8.36823 3.99996 8.00004C3.99996 7.63185 3.70148 7.33337 3.33329 7.33337C2.9651 7.33337 2.66663 7.63185 2.66663 8.00004C2.66663 8.36823 2.9651 8.66671 3.33329 8.66671Z" stroke="#FF1146" stroke-width="1.33" stroke-linecap="round" stroke-linejoin="round"/>
</g>
</svg>
