<svg width="17" height="17" viewBox="0 0 17 17" fill="none" xmlns="http://www.w3.org/2000/svg">
<g id="Frame">
<g id="Vector">
<path d="M4.1665 7.75H13.1665C13.3654 7.75 13.5562 7.82902 13.6968 7.96967C13.8375 8.11032 13.9165 8.30109 13.9165 8.5C13.9165 8.69891 13.8375 8.88968 13.6968 9.03033C13.5562 9.17098 13.3654 9.25 13.1665 9.25H4.1665C3.96759 9.25 3.77683 9.17098 3.63617 9.03033C3.49552 8.88968 3.4165 8.69891 3.4165 8.5C3.4165 8.30109 3.49552 8.11032 3.63617 7.96967C3.77683 7.82902 3.96759 7.75 4.1665 7.75Z" fill="#515151"/>
<path d="M9.4165 4V13C9.4165 13.1989 9.33749 13.3897 9.19683 13.5303C9.05618 13.671 8.86542 13.75 8.6665 13.75C8.46759 13.75 8.27683 13.671 8.13617 13.5303C7.99552 13.3897 7.9165 13.1989 7.9165 13V4C7.9165 3.80109 7.99552 3.61032 8.13617 3.46967C8.27683 3.32902 8.46759 3.25 8.6665 3.25C8.86542 3.25 9.05618 3.32902 9.19683 3.46967C9.33749 3.61032 9.4165 3.80109 9.4165 4Z" fill="#515151"/>
</g>
</g>
</svg>
