<svg width="50" height="50" viewBox="0 0 50 50" fill="none" xmlns="http://www.w3.org/2000/svg">
<g id="Icon/Feather Icon" filter="url(#filter0_d_473_7991)">
<g id="Vector">
<path d="M23.0016 38.666C32.2064 38.666 39.6683 31.2041 39.6683 21.9993C39.6683 12.7946 32.2064 5.33264 23.0016 5.33264C13.7969 5.33264 6.33496 12.7946 6.33496 21.9993C6.33496 31.2041 13.7969 38.666 23.0016 38.666Z" fill="#FF1146"/>
<path d="M23.0016 40.666C33.3109 40.666 41.6683 32.3086 41.6683 21.9993C41.6683 11.69 33.3109 3.33264 23.0016 3.33264C12.6923 3.33264 4.33496 11.69 4.33496 21.9993C4.33496 32.3086 12.6923 40.666 23.0016 40.666Z" stroke="#FF1146" stroke-opacity="0.15" stroke-width="4"/>
</g>
<path id="Vector (Stroke)" fill-rule="evenodd" clip-rule="evenodd" d="M23.0014 14.6655C23.641 14.6655 24.1594 15.1839 24.1594 15.8235V20.8426H29.177C29.8165 20.8426 30.335 21.361 30.335 22.0006C30.335 22.6401 29.8165 23.1586 29.177 23.1586H24.1594V28.1755C24.1594 28.815 23.641 29.3335 23.0014 29.3335C22.3619 29.3335 21.8434 28.815 21.8434 28.1755V23.1586H16.825C16.1854 23.1586 15.667 22.6401 15.667 22.0006C15.667 21.361 16.1854 20.8426 16.825 20.8426H21.8434V15.8235C21.8434 15.1839 22.3619 14.6655 23.0014 14.6655Z" fill="white"/>
</g>
<defs>
<filter id="filter0_d_473_7991" x="0.419377" y="0.374849" width="48.9953" height="48.9957" filterUnits="userSpaceOnUse" color-interpolation-filters="sRGB">
<feFlood flood-opacity="0" result="BackgroundImageFix"/>
<feColorMatrix in="SourceAlpha" type="matrix" values="0 0 0 0 0 0 0 0 0 0 0 0 0 0 0 0 0 0 127 0" result="hardAlpha"/>
<feOffset dx="1.91558" dy="2.87338"/>
<feGaussianBlur stdDeviation="1.91558"/>
<feComposite in2="hardAlpha" operator="out"/>
<feColorMatrix type="matrix" values="0 0 0 0 0.14902 0 0 0 0 0.14902 0 0 0 0 0.14902 0 0 0 0.05 0"/>
<feBlend mode="normal" in2="BackgroundImageFix" result="effect1_dropShadow_473_7991"/>
<feBlend mode="normal" in="SourceGraphic" in2="effect1_dropShadow_473_7991" result="shape"/>
</filter>
</defs>
</svg>
