<svg xmlns="http://www.w3.org/2000/svg" width="62" height="62" viewBox="0 0 62 62" fill="none">
    <path
        d="M20.0752 14.7149L21.2095 13.7952L22.6953 13.905L22.1271 12.595L22.6953 11.2845L21.2095 11.3943L20.0752 10.4742L19.7255 11.8524L18.4551 12.5946L19.7255 13.3364L20.0752 14.7149Z"
        fill="#D8D8D8" />
    <path
        d="M40.7403 13.1517L41.7915 14.208L42.22 12.8458L43.5081 12.2283L42.3135 11.3374L42.0585 9.89935L40.8921 10.7118L39.4466 10.4402L39.9197 11.8328L39.2812 13.1033L40.7403 13.1517Z"
        fill="#D8D8D8" />
    <path
        d="M29.1597 11.4931L30.5649 11.0954L31.8872 11.7825L31.8813 10.3541L32.9212 9.37393L31.512 8.88853L30.8324 7.59595L29.9677 8.72469L28.5078 8.90601L29.3825 10.0884L29.1597 11.4931Z"
        fill="#D8D8D8" />
    <path
        d="M13.8593 20.0255L14.8594 21.0359L15.371 19.6686L16.7073 19.0092L15.5531 18.1687L15.378 16.7502L14.1534 17.5985L12.7094 17.3813L13.1064 18.7465L12.3887 20.0304L13.8593 20.0255Z"
        fill="#D8D8D8" />
    <path
        d="M41.687 47.8932L40.5619 48.8107L39.0879 48.7013L39.6517 50.0084L39.0879 51.3158L40.5619 51.2063L41.687 52.1238L42.0336 50.7486L43.2933 50.0084L42.0336 49.2684L41.687 47.8932Z"
        fill="#D8D8D8" />
    <path
        d="M32.6898 50.4024L31.2962 50.7994L29.9846 50.1138L29.9905 51.539L28.959 52.5168L30.3564 53.0007L31.0309 54.2901L31.8889 53.1639L33.3365 52.9841L32.4689 51.8035L32.6898 50.4024Z"
        fill="#D8D8D8" />
    <path
        d="M21.8204 48.7911L20.78 47.739L20.3516 49.0978L19.0723 49.7153L20.2561 50.6017L20.5059 52.035L21.6658 51.2237L23.0997 51.4923L22.6329 50.1045L23.2689 48.8369L21.8204 48.7911Z"
        fill="#D8D8D8" />
    <path
        d="M30.7313 0C13.7858 0 0 13.7862 0 30.7316C0 47.677 13.7859 61.4629 30.7313 61.4629C47.6767 61.4629 61.4629 47.677 61.4629 30.7316C61.4629 13.7862 47.6767 0 30.7313 0ZM30.7313 59.4225C14.911 59.4225 2.04034 46.552 2.04034 30.7316C2.04034 14.9109 14.9109 2.04034 30.7313 2.04034C46.5517 2.04034 59.4225 14.9109 59.4225 30.7316C59.4225 46.552 46.5516 59.4225 30.7313 59.4225Z"
        fill="#D8D8D8" />
    <path
        d="M30.7309 4.9613C16.5214 4.9613 4.96094 16.5218 4.96094 30.7317C4.96094 44.9412 16.5214 56.5017 30.7309 56.5017C44.9407 56.5017 56.5013 44.9412 56.5013 30.7317C56.5013 16.5218 44.9407 4.9613 30.7309 4.9613ZM49.874 41.8445L48.8137 40.9089L48.4037 42.3063L47.1281 43.0555L48.3298 43.8114L48.602 45.2102L49.7541 44.2801L51.1833 44.3937C46.7647 50.9866 39.2465 55.3359 30.7309 55.3359C17.1641 55.3359 6.12662 44.2985 6.12662 30.7316C6.12662 17.1644 17.164 6.12706 30.7309 6.12706C44.2978 6.12706 55.3355 17.1644 55.3355 30.7316C55.3355 35.7766 53.8082 40.4711 51.1929 44.3791L50.7094 43.0646L51.3287 41.7369L49.874 41.8445Z"
        fill="#D8D8D8" />
    <path
        d="M40.8613 18.371C38.0155 16.0357 34.4175 14.7497 30.7304 14.7497C23.0682 14.7497 16.4664 20.2049 15.0332 27.7205L16.0355 27.9118C17.377 20.8764 23.5574 15.7697 30.7304 15.7697C34.1822 15.7697 37.5505 16.9735 40.2143 19.1594L40.8613 18.371Z"
        fill="#D8D8D8" />
    <path
        d="M30.7321 45.6933C27.2805 45.6933 23.9128 44.4895 21.2486 42.3037L20.6016 43.092C23.4474 45.4273 27.0454 46.7133 30.7322 46.7133C38.3946 46.7133 44.9964 41.2581 46.4296 33.7425L45.4274 33.5513C44.0858 40.587 37.9054 45.6933 30.7321 45.6933Z"
        fill="#D8D8D8" />
    <path
        d="M18.3591 40.1224L22.4031 38.4997C23.563 38.0343 23.5924 37.6148 23.0539 35.8417C23.3265 35.9053 23.7289 35.892 23.9801 35.8407C24.5594 37.8693 24.4388 38.5848 22.7041 39.2809L18.7241 40.8779C17.0214 41.5611 16.3697 41.4767 15.8445 40.1677L13.7094 34.8468L14.5076 34.5265L15.2079 36.2718L20.7629 34.0428L19.6442 31.2546L12.7269 34.0302L12.4152 33.2533L20.1412 30.1532L22.0969 35.0272L21.2882 35.3517L21.0746 34.8196L15.5196 37.0486L16.6469 39.8581C16.9159 40.5285 17.2098 40.5836 18.3591 40.1224Z"
        fill="#D8D8D8" />
    <path
        d="M33.4916 25.8588L29.0007 27.6608L29.7522 29.5338L29.8265 29.3187C31.3193 29.4363 33.4106 29.7215 34.5118 30.0333L34.253 30.9896C33.2753 30.6777 31.4906 30.356 30.0127 30.183L32.2417 35.738L31.401 36.0754L28.16 27.9982L24.0948 29.6294L23.7745 28.8312L33.1713 25.0607L33.4916 25.8588Z"
        fill="#D8D8D8" />
    <path
        d="M44.9343 23.8002L44.0504 21.5973L41.8688 22.4727L42.7527 24.6756L44.9343 23.8002ZM44.5454 20.5832L45.9887 24.1802L42.2854 25.6662L40.8421 22.0692L44.5454 20.5832ZM39.6727 23.6504L38.1828 24.2483C38.5315 25.764 38.4456 27.0587 37.4632 28.2436C37.2991 28.1118 36.9603 27.9141 36.7388 27.8547C37.5916 26.8701 37.6841 25.8075 37.4166 24.5557L35.8948 25.1663L35.6172 24.4746L37.2348 23.8256C37.1301 23.4722 36.9976 23.0806 36.8546 22.6932L37.6314 22.3815C37.7639 22.7731 37.892 23.1541 37.9904 23.5224L40.172 22.647C40.172 22.647 40.251 22.8748 40.2788 22.9748C40.9261 24.9267 41.1228 25.7249 40.9785 26.1041C40.885 26.364 40.7298 26.5004 40.4829 26.6242C40.2679 26.7352 39.8636 26.8974 39.4293 27.0469C39.3184 26.832 39.1286 26.5746 38.9347 26.43C39.3625 26.2954 39.7286 26.1608 39.8882 26.0968C40.0266 26.0413 40.1074 25.9965 40.1542 25.8665C40.2284 25.6514 40.1128 25.0553 39.6727 23.6504ZM46.9469 26.1062L43.3712 27.5409C44.69 28.2102 46.5662 28.4829 48.1949 28.3236C48.0844 28.5409 47.9742 28.9434 47.9382 29.1926C46.3009 29.2689 44.431 28.9196 42.995 28.1737L44.1479 31.0471L43.3392 31.3716L42.1563 28.4238C41.6513 29.9979 40.533 31.645 39.3525 32.7365C39.1543 32.5813 38.7942 32.3922 38.5705 32.2966C39.7704 31.2839 40.9377 29.7282 41.4344 28.3181L37.8055 29.7742L37.5194 29.0612L41.7336 27.3702L41.3237 26.3486L42.1324 26.0241L42.5424 27.0457L46.6608 25.3932L46.9469 26.1062Z"
        fill="#D8D8D8" />
    <path fill-rule="evenodd" clip-rule="evenodd"
        d="M22.9078 35.7049L23.0766 35.7443C23.3321 35.8039 23.7196 35.7919 23.9601 35.7427L24.0508 35.7241L24.0763 35.8132C24.3648 36.8238 24.4905 37.5393 24.3046 38.0923C24.1152 38.6561 23.614 39.0236 22.7414 39.3737L18.7613 40.9707C18.3337 41.1423 17.9678 41.2675 17.6511 41.3369C17.3345 41.4063 17.061 41.4215 16.8208 41.3674C16.3297 41.2569 16.0178 40.8683 15.7517 40.2049L13.5794 34.7912L14.5631 34.3965L15.2634 36.1417L20.6329 33.9872L19.5886 31.3846L12.6714 34.1602L12.2852 33.1977L20.1968 30.0232L22.227 35.0828L21.2326 35.4818L21.0191 34.9497L15.6496 37.1042L16.7397 39.8208C16.8717 40.1497 16.9935 40.2848 17.1886 40.3158C17.2946 40.3327 17.4323 40.3208 17.6199 40.273C17.8068 40.2255 18.0358 40.1444 18.3219 40.0296L22.3658 38.4069C22.9423 38.1756 23.1944 37.9713 23.2677 37.6395C23.306 37.4663 23.298 37.2484 23.2442 36.9578C23.1904 36.6678 23.0927 36.3137 22.9582 35.8707L22.9078 35.7049ZM15.5196 37.0486L21.0746 34.8196L21.2882 35.3517L22.0969 35.0272L20.1412 30.1532L12.4152 33.2533L12.7269 34.0302L19.6442 31.2546L20.7629 34.0428L15.2079 36.2718L14.5076 34.5265L13.7094 34.8468L15.8445 40.1677C16.3697 41.4767 17.0214 41.5611 18.7241 40.8779L22.7041 39.2809C24.4388 38.5848 24.5594 37.8693 23.9801 35.8407C23.7612 35.8854 23.4273 35.9012 23.1646 35.8624C23.126 35.8567 23.0889 35.8498 23.0539 35.8417C23.0651 35.8786 23.0761 35.915 23.0868 35.9508C23.5907 37.6323 23.5389 38.044 22.4031 38.4997L18.3591 40.1224C17.2098 40.5836 16.9159 40.5285 16.6469 39.8581L15.5196 37.0486ZM33.6216 25.9144L29.1307 27.7164L29.7452 29.2478L29.7572 29.2129L29.8344 29.219C31.3289 29.3367 33.4281 29.6225 34.539 29.9371L34.6341 29.964L34.3222 31.1167L34.2226 31.0849C33.2904 30.7875 31.609 30.4791 30.1683 30.3023L32.3718 35.7936L31.3454 36.2054L28.1044 28.1282L24.0392 29.7594L23.6445 28.7757L33.2269 24.9307L33.6216 25.9144ZM28.16 27.9982L31.401 36.0754L32.2417 35.738L30.0127 30.183C30.0502 30.1874 30.0879 30.1918 30.1259 30.1964C31.5333 30.3666 33.1884 30.6653 34.1575 30.9599C34.1901 30.9698 34.222 30.9797 34.253 30.9896L34.5118 30.0333C33.4106 29.7215 31.3193 29.4363 29.8265 29.3187L29.7522 29.5338L29.0007 27.6608L33.4916 25.8588L33.1713 25.0607L23.7745 28.8312L24.0948 29.6294L28.16 27.9982ZM44.601 20.4532L46.1188 24.2358L42.2298 25.7962L40.712 22.0137L44.601 20.4532ZM39.0493 26.3935C39.4271 26.2716 39.7431 26.155 39.8882 26.0968C40.0266 26.0413 40.1074 25.9965 40.1542 25.8665C40.2267 25.6563 40.118 25.0826 39.7025 23.7462C39.6928 23.7147 39.6828 23.6828 39.6727 23.6504L38.1828 24.2483C38.5315 25.764 38.4456 27.0587 37.4632 28.2436C37.3228 28.1309 37.0547 27.97 36.8415 27.8886C36.8054 27.8748 36.7708 27.8633 36.7388 27.8547C36.7628 27.827 36.7863 27.7991 36.8091 27.7712C37.5749 26.8363 37.6716 25.8289 37.4372 24.6552C37.4306 24.6222 37.4237 24.589 37.4166 24.5557L35.8948 25.1663L35.6172 24.4746L37.2348 23.8256C37.1301 23.4722 36.9976 23.0806 36.8546 22.6932L37.6314 22.3815C37.6421 22.4132 37.6528 22.4448 37.6635 22.4763C37.7729 22.8005 37.8779 23.1172 37.9638 23.4253C37.9729 23.4577 37.9818 23.4901 37.9904 23.5224L40.172 22.647C40.172 22.647 40.186 22.6875 40.2043 22.7418C40.2295 22.8163 40.2627 22.9169 40.2788 22.9748C40.9261 24.9267 41.1228 25.7249 40.9785 26.1041C40.885 26.364 40.7298 26.5004 40.4829 26.6242C40.2679 26.7352 39.8636 26.8974 39.4293 27.0469C39.3359 26.8658 39.1864 26.6546 39.0257 26.5061C38.9956 26.4783 38.9652 26.4527 38.9347 26.43C38.9734 26.4178 39.0117 26.4056 39.0493 26.3935ZM40.5283 26.7133C40.3066 26.8277 39.8971 26.9917 39.4619 27.1415L39.3801 27.1697L39.3405 27.0928C39.2338 26.8862 39.0527 26.6427 38.8749 26.5102L38.7181 26.3933L38.9047 26.3346C39.3304 26.2006 39.6941 26.067 39.851 26.004C39.9199 25.9763 39.9625 25.9557 39.9934 25.9312C40.0207 25.9096 40.0422 25.8821 40.0598 25.8333C40.0718 25.7981 40.0793 25.7364 40.0724 25.6338C40.0656 25.5323 40.0453 25.3988 40.0085 25.2254C39.9385 24.8959 39.8106 24.4311 39.6094 23.7836L38.2991 24.3094C38.6297 25.8075 38.5312 27.1121 37.5401 28.3074L37.4773 28.3832L37.4005 28.3216C37.3242 28.2603 37.2037 28.181 37.0742 28.1096C36.9439 28.0377 36.8121 27.9779 36.7129 27.9513L36.5586 27.91L36.6632 27.7893C37.4624 26.8665 37.5757 25.8746 37.3427 24.6931L35.8392 25.2964L35.4872 24.4191L37.1128 23.7668C37.0132 23.4392 36.8915 23.0819 36.7607 22.7278L36.7271 22.6366L37.6923 22.2493L37.7261 22.3494C37.8456 22.7026 37.9625 23.0499 38.0572 23.3878L40.2321 22.5151L40.2664 22.6142L40.2699 22.6244L40.2794 22.6518C40.2873 22.6748 40.2981 22.7067 40.3098 22.7417C40.3326 22.8098 40.3596 22.8926 40.3744 22.9456C40.6976 23.9202 40.9098 24.6112 41.023 25.107C41.1348 25.5967 41.1559 25.9182 41.0722 26.1388C40.9677 26.4291 40.7899 26.5821 40.5283 26.7133ZM47.0769 26.1617L43.6189 27.5493C44.903 28.1372 46.6532 28.3739 48.1852 28.224L48.3667 28.2063L48.2841 28.3689C48.18 28.5736 48.0721 28.9648 48.0372 29.2069L48.0254 29.2886L47.9429 29.2925C46.3788 29.3654 44.6037 29.0539 43.1855 28.3801L44.278 31.1026L43.2836 31.5016L42.164 28.7114C41.6192 30.2235 40.5481 31.7673 39.4203 32.81L39.3578 32.8678L39.2908 32.8153C39.1023 32.6676 38.7511 32.4825 38.5312 32.3886L38.3821 32.3248L38.506 32.2202C39.6354 31.267 40.7343 29.8285 41.2614 28.4953L37.7499 29.9043L37.3894 29.0056L41.6035 27.3147L41.1936 26.293L42.188 25.894L42.5979 26.9157L46.7164 25.2631L47.0769 26.1617ZM42.5424 27.0457L42.1324 26.0241L41.3237 26.3486L41.7336 27.3702L37.5194 29.0612L37.8055 29.7742L41.4344 28.3181C41.4196 28.3601 41.4042 28.4022 41.3883 28.4444C40.8807 29.787 39.7892 31.2418 38.655 32.2244C38.6269 32.2488 38.5987 32.2728 38.5705 32.2966C38.6018 32.31 38.6358 32.3252 38.6717 32.3419C38.8919 32.4445 39.182 32.603 39.3525 32.7365C40.4964 31.6789 41.5817 30.0997 42.1075 28.5707C42.1244 28.5216 42.1406 28.4727 42.1563 28.4238L43.3392 31.3716L44.1479 31.0471L42.995 28.1737C43.0397 28.1969 43.0847 28.2198 43.1302 28.2422C44.5471 28.9409 46.3518 29.2665 47.9382 29.1926C47.969 28.9795 48.0541 28.6542 48.1472 28.4285C48.163 28.3903 48.1789 28.355 48.1949 28.3236C48.1564 28.3273 48.1178 28.3308 48.0791 28.3341C46.5272 28.4656 44.7708 28.211 43.4918 27.6003C43.4511 27.5809 43.4109 27.5611 43.3712 27.5409L46.9469 26.1062L46.6608 25.3932L42.5424 27.0457ZM44.0504 21.5973L44.9343 23.8002L42.7527 24.6756L41.8688 22.4727L44.0504 21.5973ZM43.9948 21.7274L41.9989 22.5283L42.8083 24.5455L44.8043 23.7446L43.9948 21.7274ZM44.5454 20.5832L45.9887 24.1802L42.2854 25.6662L40.8421 22.0692L44.5454 20.5832Z"
        fill="#D8D8D8" />
</svg>